<svg width="68" height="11" viewBox="0 0 68 11" fill="none" xmlns="http://www.w3.org/2000/svg">
<path d="M3.816 1.504H4.764L8.376 10H7.2L6.336 7.912H2.088L1.212 10H0.072L3.816 1.504ZM4.272 2.8H4.248L2.484 6.976H5.952L4.272 2.8ZM9.33722 5.716C9.33722 5.46 9.32922 5.22 9.31322 4.996C9.29722 4.772 9.28922 4.568 9.28922 4.384H10.1772C10.1772 4.536 10.1812 4.688 10.1892 4.84C10.1972 4.992 10.2012 5.148 10.2012 5.308H10.2252C10.2892 5.172 10.3772 5.04 10.4892 4.912C10.6092 4.784 10.7492 4.672 10.9092 4.576C11.0692 4.472 11.2492 4.392 11.4492 4.336C11.6492 4.272 11.8652 4.24 12.0972 4.24C12.4652 4.24 12.7812 4.296 13.0452 4.408C13.3172 4.52 13.5412 4.676 13.7172 4.876C13.8932 5.076 14.0212 5.32 14.1012 5.608C14.1892 5.888 14.2332 6.196 14.2332 6.532V10H13.2972V6.628C13.2972 6.156 13.1932 5.784 12.9852 5.512C12.7772 5.24 12.4532 5.104 12.0132 5.104C11.7092 5.104 11.4452 5.156 11.2212 5.26C11.0052 5.364 10.8252 5.512 10.6812 5.704C10.5452 5.896 10.4412 6.124 10.3692 6.388C10.3052 6.652 10.2732 6.944 10.2732 7.264V10H9.33722V5.716ZM20.6732 9.004H20.6492C20.4732 9.324 20.1932 9.596 19.8092 9.82C19.4332 10.036 18.9932 10.144 18.4892 10.144C18.0972 10.144 17.7292 10.072 17.3852 9.928C17.0412 9.776 16.7412 9.568 16.4852 9.304C16.2372 9.04 16.0412 8.728 15.8972 8.368C15.7532 8.008 15.6812 7.616 15.6812 7.192C15.6812 6.768 15.7532 6.376 15.8972 6.016C16.0412 5.656 16.2412 5.344 16.4972 5.08C16.7532 4.816 17.0612 4.612 17.4212 4.468C17.7892 4.316 18.1932 4.24 18.6332 4.24C19.0412 4.24 19.4132 4.324 19.7492 4.492C20.0932 4.66 20.3932 4.896 20.6492 5.2H20.6732V0.927999H21.6092V10H20.6732V9.004ZM20.6732 7.192C20.6732 6.896 20.6252 6.624 20.5292 6.376C20.4412 6.12 20.3092 5.9 20.1332 5.716C19.9572 5.524 19.7452 5.376 19.4972 5.272C19.2572 5.16 18.9852 5.104 18.6812 5.104C18.3772 5.104 18.1012 5.16 17.8532 5.272C17.6132 5.376 17.4052 5.524 17.2292 5.716C17.0532 5.9 16.9172 6.12 16.8212 6.376C16.7332 6.624 16.6892 6.896 16.6892 7.192C16.6892 7.488 16.7332 7.764 16.8212 8.02C16.9172 8.268 17.0532 8.488 17.2292 8.68C17.4052 8.864 17.6132 9.012 17.8532 9.124C18.1012 9.228 18.3772 9.28 18.6812 9.28C18.9852 9.28 19.2572 9.228 19.4972 9.124C19.7452 9.012 19.9572 8.864 20.1332 8.68C20.3092 8.488 20.4412 8.268 20.5292 8.02C20.6252 7.764 20.6732 7.488 20.6732 7.192ZM23.3411 5.716C23.3411 5.46 23.3331 5.22 23.3171 4.996C23.3011 4.772 23.2931 4.568 23.2931 4.384H24.1811C24.1811 4.536 24.1851 4.688 24.1931 4.84C24.2011 4.992 24.2051 5.148 24.2051 5.308H24.2291C24.2931 5.172 24.3811 5.04 24.4931 4.912C24.6131 4.784 24.7531 4.672 24.9131 4.576C25.0731 4.472 25.2531 4.392 25.4531 4.336C25.6531 4.272 25.8691 4.24 26.1011 4.24C26.1651 4.24 26.2291 4.244 26.2931 4.252C26.3571 4.26 26.4211 4.276 26.4851 4.3L26.4251 5.248C26.2651 5.2 26.0971 5.176 25.9211 5.176C25.3451 5.176 24.9251 5.364 24.6611 5.74C24.4051 6.108 24.2771 6.616 24.2771 7.264V10H23.3411V5.716ZM32.3649 8.98C32.0289 9.412 31.6609 9.716 31.2609 9.892C30.8609 10.06 30.3969 10.144 29.8689 10.144C29.4289 10.144 29.0329 10.068 28.6809 9.916C28.3289 9.756 28.0289 9.544 27.7809 9.28C27.5409 9.016 27.3529 8.704 27.2169 8.344C27.0889 7.984 27.0249 7.6 27.0249 7.192C27.0249 6.76 27.0969 6.364 27.2409 6.004C27.3849 5.636 27.5849 5.324 27.8409 5.068C28.0969 4.804 28.4009 4.6 28.7529 4.456C29.1049 4.312 29.4889 4.24 29.9049 4.24C30.2969 4.24 30.6569 4.308 30.9849 4.444C31.3129 4.572 31.5929 4.764 31.8249 5.02C32.0649 5.268 32.2489 5.576 32.3769 5.944C32.5049 6.304 32.5689 6.716 32.5689 7.18V7.48H28.0329C28.0489 7.72 28.1049 7.952 28.2009 8.176C28.3049 8.392 28.4369 8.584 28.5969 8.752C28.7569 8.912 28.9449 9.04 29.1609 9.136C29.3769 9.232 29.6129 9.28 29.8689 9.28C30.2769 9.28 30.6209 9.208 30.9009 9.064C31.1809 8.92 31.4329 8.708 31.6569 8.428L32.3649 8.98ZM31.5609 6.688C31.5449 6.208 31.3889 5.824 31.0929 5.536C30.7969 5.248 30.3889 5.104 29.8689 5.104C29.3489 5.104 28.9289 5.248 28.6089 5.536C28.2889 5.824 28.0969 6.208 28.0329 6.688H31.5609ZM30.2169 1.312H31.5369L29.8209 3.04H28.9689L30.2169 1.312ZM34.1369 8.524C34.3209 8.756 34.5209 8.94 34.7369 9.076C34.9609 9.212 35.2409 9.28 35.5769 9.28C35.7209 9.28 35.8649 9.264 36.0089 9.232C36.1609 9.2 36.2969 9.148 36.4169 9.076C36.5369 9.004 36.6329 8.916 36.7049 8.812C36.7769 8.7 36.8129 8.568 36.8129 8.416C36.8129 8.264 36.7769 8.14 36.7049 8.044C36.6409 7.948 36.5529 7.868 36.4409 7.804C36.3289 7.732 36.2009 7.676 36.0569 7.636C35.9129 7.596 35.7649 7.56 35.6129 7.528C35.3489 7.472 35.0969 7.408 34.8569 7.336C34.6169 7.264 34.4049 7.172 34.2209 7.06C34.0449 6.94 33.9009 6.788 33.7889 6.604C33.6849 6.42 33.6329 6.184 33.6329 5.896C33.6329 5.624 33.6929 5.384 33.8129 5.176C33.9329 4.968 34.0929 4.796 34.2929 4.66C34.4929 4.524 34.7169 4.42 34.9649 4.348C35.2129 4.276 35.4689 4.24 35.7329 4.24C36.1329 4.24 36.5009 4.32 36.8369 4.48C37.1809 4.64 37.4489 4.9 37.6409 5.26L36.8609 5.776C36.7409 5.576 36.5809 5.416 36.3809 5.296C36.1889 5.168 35.9529 5.104 35.6729 5.104C35.5449 5.104 35.4129 5.12 35.2769 5.152C35.1489 5.184 35.0329 5.232 34.9289 5.296C34.8249 5.36 34.7369 5.444 34.6649 5.548C34.6009 5.644 34.5689 5.756 34.5689 5.884C34.5689 6.004 34.6049 6.108 34.6769 6.196C34.7569 6.276 34.8609 6.348 34.9889 6.412C35.1249 6.476 35.2769 6.532 35.4449 6.58C35.6209 6.628 35.8009 6.668 35.9849 6.7C36.2329 6.748 36.4689 6.812 36.6929 6.892C36.9169 6.964 37.1129 7.064 37.2809 7.192C37.4489 7.32 37.5809 7.48 37.6769 7.672C37.7729 7.864 37.8209 8.1 37.8209 8.38C37.8209 8.7 37.7569 8.972 37.6289 9.196C37.5009 9.42 37.3289 9.604 37.1129 9.748C36.9049 9.884 36.6649 9.984 36.3929 10.048C36.1289 10.112 35.8569 10.144 35.5769 10.144C35.0969 10.144 34.6809 10.072 34.3289 9.928C33.9849 9.776 33.6729 9.5 33.3929 9.1L34.1369 8.524ZM42.6341 1.504H44.8061C45.2141 1.504 45.6181 1.528 46.0181 1.576C46.4261 1.624 46.7901 1.728 47.1101 1.888C47.4301 2.048 47.6901 2.284 47.8901 2.596C48.0901 2.9 48.1901 3.316 48.1901 3.844C48.1901 4.468 48.0021 4.972 47.6261 5.356C47.2501 5.74 46.7301 5.984 46.0661 6.088L48.4781 10H47.2421L44.9381 6.184H43.6421V10H42.6341V1.504ZM43.6421 5.248H44.5421C44.8221 5.248 45.1101 5.24 45.4061 5.224C45.7101 5.208 45.9861 5.156 46.2341 5.068C46.4901 4.98 46.6981 4.844 46.8581 4.66C47.0261 4.468 47.1101 4.196 47.1101 3.844C47.1101 3.54 47.0501 3.296 46.9301 3.112C46.8101 2.928 46.6501 2.788 46.4501 2.692C46.2581 2.588 46.0381 2.52 45.7901 2.488C45.5501 2.456 45.3061 2.44 45.0581 2.44H43.6421V5.248ZM49.4781 7.192C49.4781 6.752 49.5541 6.352 49.7061 5.992C49.8581 5.632 50.0661 5.324 50.3301 5.068C50.5941 4.804 50.9101 4.6 51.2781 4.456C51.6461 4.312 52.0461 4.24 52.4781 4.24C52.9101 4.24 53.3101 4.312 53.6781 4.456C54.0461 4.6 54.3621 4.804 54.6261 5.068C54.8901 5.324 55.0981 5.632 55.2501 5.992C55.4021 6.352 55.4781 6.752 55.4781 7.192C55.4781 7.632 55.4021 8.032 55.2501 8.392C55.0981 8.752 54.8901 9.064 54.6261 9.328C54.3621 9.584 54.0461 9.784 53.6781 9.928C53.3101 10.072 52.9101 10.144 52.4781 10.144C52.0461 10.144 51.6461 10.072 51.2781 9.928C50.9101 9.784 50.5941 9.584 50.3301 9.328C50.0661 9.064 49.8581 8.752 49.7061 8.392C49.5541 8.032 49.4781 7.632 49.4781 7.192ZM50.4861 7.192C50.4861 7.488 50.5301 7.764 50.6181 8.02C50.7141 8.268 50.8501 8.488 51.0261 8.68C51.2021 8.864 51.4101 9.012 51.6501 9.124C51.8981 9.228 52.1741 9.28 52.4781 9.28C52.7821 9.28 53.0541 9.228 53.2941 9.124C53.5421 9.012 53.7541 8.864 53.9301 8.68C54.1061 8.488 54.2381 8.268 54.3261 8.02C54.4221 7.764 54.4701 7.488 54.4701 7.192C54.4701 6.896 54.4221 6.624 54.3261 6.376C54.2381 6.12 54.1061 5.9 53.9301 5.716C53.7541 5.524 53.5421 5.376 53.2941 5.272C53.0541 5.16 52.7821 5.104 52.4781 5.104C52.1741 5.104 51.8981 5.16 51.6501 5.272C51.4101 5.376 51.2021 5.524 51.0261 5.716C50.8501 5.9 50.7141 6.12 50.6181 6.376C50.5301 6.624 50.4861 6.896 50.4861 7.192ZM57.0471 8.524C57.2311 8.756 57.4311 8.94 57.6471 9.076C57.8711 9.212 58.1511 9.28 58.4871 9.28C58.6311 9.28 58.7751 9.264 58.9191 9.232C59.0711 9.2 59.2071 9.148 59.3271 9.076C59.4471 9.004 59.5431 8.916 59.6151 8.812C59.6871 8.7 59.7231 8.568 59.7231 8.416C59.7231 8.264 59.6871 8.14 59.6151 8.044C59.5511 7.948 59.4631 7.868 59.3511 7.804C59.2391 7.732 59.1111 7.676 58.9671 7.636C58.8231 7.596 58.6751 7.56 58.5231 7.528C58.2591 7.472 58.0071 7.408 57.7671 7.336C57.5271 7.264 57.3151 7.172 57.1311 7.06C56.9551 6.94 56.8111 6.788 56.6991 6.604C56.5951 6.42 56.5431 6.184 56.5431 5.896C56.5431 5.624 56.6031 5.384 56.7231 5.176C56.8431 4.968 57.0031 4.796 57.2031 4.66C57.4031 4.524 57.6271 4.42 57.8751 4.348C58.1231 4.276 58.3791 4.24 58.6431 4.24C59.0431 4.24 59.4111 4.32 59.7471 4.48C60.0911 4.64 60.3591 4.9 60.5511 5.26L59.7711 5.776C59.6511 5.576 59.4911 5.416 59.2911 5.296C59.0991 5.168 58.8631 5.104 58.5831 5.104C58.4551 5.104 58.3231 5.12 58.1871 5.152C58.0591 5.184 57.9431 5.232 57.8391 5.296C57.7351 5.36 57.6471 5.444 57.5751 5.548C57.5111 5.644 57.4791 5.756 57.4791 5.884C57.4791 6.004 57.5151 6.108 57.5871 6.196C57.6671 6.276 57.7711 6.348 57.8991 6.412C58.0351 6.476 58.1871 6.532 58.3551 6.58C58.5311 6.628 58.7111 6.668 58.8951 6.7C59.1431 6.748 59.3791 6.812 59.6031 6.892C59.8271 6.964 60.0231 7.064 60.1911 7.192C60.3591 7.32 60.4911 7.48 60.5871 7.672C60.6831 7.864 60.7311 8.1 60.7311 8.38C60.7311 8.7 60.6671 8.972 60.5391 9.196C60.4111 9.42 60.2391 9.604 60.0231 9.748C59.8151 9.884 59.5751 9.984 59.3031 10.048C59.0391 10.112 58.7671 10.144 58.4871 10.144C58.0071 10.144 57.5911 10.072 57.2391 9.928C56.8951 9.776 56.5831 9.5 56.3031 9.1L57.0471 8.524ZM67.0524 8.98C66.7164 9.412 66.3484 9.716 65.9484 9.892C65.5484 10.06 65.0844 10.144 64.5564 10.144C64.1164 10.144 63.7204 10.068 63.3684 9.916C63.0164 9.756 62.7164 9.544 62.4684 9.28C62.2284 9.016 62.0404 8.704 61.9044 8.344C61.7764 7.984 61.7124 7.6 61.7124 7.192C61.7124 6.76 61.7844 6.364 61.9284 6.004C62.0724 5.636 62.2724 5.324 62.5284 5.068C62.7844 4.804 63.0884 4.6 63.4404 4.456C63.7924 4.312 64.1764 4.24 64.5924 4.24C64.9844 4.24 65.3444 4.308 65.6724 4.444C66.0004 4.572 66.2804 4.764 66.5124 5.02C66.7524 5.268 66.9364 5.576 67.0644 5.944C67.1924 6.304 67.2564 6.716 67.2564 7.18V7.48H62.7204C62.7364 7.72 62.7924 7.952 62.8884 8.176C62.9924 8.392 63.1244 8.584 63.2844 8.752C63.4444 8.912 63.6324 9.04 63.8484 9.136C64.0644 9.232 64.3004 9.28 64.5564 9.28C64.9644 9.28 65.3084 9.208 65.5884 9.064C65.8684 8.92 66.1204 8.708 66.3444 8.428L67.0524 8.98ZM66.2484 6.688C66.2324 6.208 66.0764 5.824 65.7804 5.536C65.4844 5.248 65.0764 5.104 64.5564 5.104C64.0364 5.104 63.6164 5.248 63.2964 5.536C62.9764 5.824 62.7844 6.208 62.7204 6.688H66.2484Z" fill="black"/>
</svg>
